<svg xmlns="http://www.w3.org/2000/svg" viewBox="0 0 100 100">
		<linearGradient xmlns="http://www.w3.org/2000/svg" id="linear">
			<stop offset="0%" stop-color="#114b5f" />
			<stop offset="60%" stop-color="#1a936f" />
		</linearGradient>
		<path fill="url(#linear)" d="M37 26 h28 a 4 4 0 1 1 0 8 h-28 a 4 4 0 1 1 0 -8 Z"/>
		<path fill="url(#linear)" d="M37 44 h16 a 4 4 0 1 1 0 8 h-16 a 4 4 0 1 1 0 -8 Z"/>
		<path fill="#114b5f" d="M33 30 a 4 4 0 1 1 8 0 v40 a 4 4 0 1 1 -8 0 v-40 Z"/>
		<path fill="url(#linear)" d="M48 66 H65 a 4 4 0 1 1 0 8 H48 a 4 4 0 1 1 0 -8 Z"/>
		<path fill="url(#linear)" d="M12 12 H88 V88 H12 V12 L18 18 V82 H82 V18 H18 Z"/>
	</svg>